<?xml version="1.0" encoding="UTF-8"?>
<svg xmlns="http://www.w3.org/2000/svg" width="40px" height="40px" viewBox="0 0 40 40" version="1.1">
    <g id="surface1">
        <path style=" stroke:none;fill-rule:nonzero;fill:rgb(9.411765%,56.862745%,67.45098%);fill-opacity:1;"
              d="M 10.71875 3.542969 L 7.355469 5.890625 C 7.445312 5.933594 7.53125 5.976562 7.617188 6.019531 C 7.699219 6.0625 7.785156 6.105469 7.867188 6.152344 C 7.949219 6.199219 8.03125 6.246094 8.109375 6.292969 C 8.1875 6.339844 8.265625 6.386719 8.34375 6.4375 L 11.648438 4.042969 C 11.566406 4.003906 11.484375 3.964844 11.40625 3.925781 C 11.324219 3.886719 11.246094 3.84375 11.167969 3.804688 C 11.089844 3.761719 11.015625 3.71875 10.941406 3.675781 C 10.867188 3.632812 10.792969 3.589844 10.71875 3.542969 "/>
        <path style=" stroke:none;fill-rule:nonzero;fill:rgb(9.411765%,56.862745%,67.45098%);fill-opacity:1;"
              d="M 16.671875 10.460938 L 13.074219 14.3125 C 13.171875 14.355469 13.269531 14.402344 13.367188 14.453125 C 13.464844 14.5 13.558594 14.550781 13.65625 14.601562 C 13.75 14.65625 13.839844 14.707031 13.933594 14.761719 C 14.023438 14.816406 14.117188 14.875 14.203125 14.929688 L 17.730469 10.984375 C 17.640625 10.945312 17.546875 10.90625 17.457031 10.863281 C 17.367188 10.824219 17.277344 10.78125 17.191406 10.738281 C 17.101562 10.691406 17.011719 10.648438 16.925781 10.601562 C 16.839844 10.554688 16.753906 10.507812 16.671875 10.460938 M 22.238281 4.5 L 20.117188 6.769531 C 20.195312 6.8125 20.273438 6.851562 20.351562 6.890625 C 20.433594 6.933594 20.511719 6.976562 20.585938 7.019531 C 20.664062 7.0625 20.738281 7.105469 20.8125 7.152344 C 20.886719 7.195312 20.960938 7.242188 21.03125 7.289062 L 23.121094 4.953125 C 23.042969 4.917969 22.96875 4.882812 22.890625 4.847656 C 22.816406 4.8125 22.742188 4.773438 22.667969 4.734375 C 22.59375 4.699219 22.523438 4.660156 22.453125 4.621094 C 22.378906 4.582031 22.308594 4.539062 22.238281 4.5 "/>
        <path style=" stroke:none;fill-rule:nonzero;fill:rgb(9.411765%,56.862745%,67.45098%);fill-opacity:1;"
              d="M 28.40625 10.761719 L 26.355469 14.355469 C 26.445312 14.394531 26.535156 14.4375 26.625 14.480469 C 26.714844 14.523438 26.804688 14.570312 26.894531 14.613281 C 26.980469 14.660156 27.070312 14.707031 27.15625 14.757812 C 27.242188 14.804688 27.328125 14.855469 27.414062 14.90625 L 29.378906 11.261719 C 29.296875 11.222656 29.210938 11.183594 29.128906 11.144531 C 29.046875 11.105469 28.964844 11.066406 28.886719 11.023438 C 28.804688 10.984375 28.722656 10.941406 28.644531 10.894531 C 28.5625 10.851562 28.484375 10.808594 28.40625 10.761719 "/>
        <path style=" stroke:none;fill-rule:nonzero;fill:rgb(9.411765%,56.862745%,67.45098%);fill-opacity:1;"
              d="M 7.933594 11.203125 C 7.847656 11.214844 7.753906 11.226562 7.664062 11.238281 C 7.570312 11.246094 7.476562 11.253906 7.382812 11.261719 C 7.285156 11.269531 7.1875 11.273438 7.089844 11.273438 C 6.988281 11.277344 6.886719 11.277344 6.78125 11.273438 L 8.230469 13.5625 C 8.324219 13.546875 8.414062 13.535156 8.507812 13.519531 C 8.605469 13.507812 8.699219 13.496094 8.796875 13.488281 C 8.894531 13.480469 8.996094 13.476562 9.09375 13.472656 C 9.195312 13.46875 9.296875 13.464844 9.402344 13.464844 L 7.933594 11.203125 "/>
        <path style=" stroke:none;fill-rule:nonzero;fill:rgb(9.411765%,56.862745%,67.45098%);fill-opacity:1;"
              d="M 21.429688 11.597656 C 21.367188 11.605469 21.300781 11.613281 21.234375 11.617188 C 21.167969 11.625 21.101562 11.628906 21.03125 11.636719 C 20.960938 11.636719 20.890625 11.640625 20.820312 11.640625 C 20.746094 11.640625 20.671875 11.640625 20.597656 11.640625 C 20.585938 11.640625 20.578125 11.640625 20.566406 11.636719 C 20.558594 11.636719 20.546875 11.636719 20.535156 11.636719 C 20.527344 11.636719 20.515625 11.636719 20.507812 11.636719 C 20.496094 11.636719 20.488281 11.636719 20.476562 11.636719 L 22.238281 13.738281 C 22.304688 13.722656 22.375 13.707031 22.449219 13.691406 C 22.523438 13.679688 22.597656 13.667969 22.675781 13.660156 C 22.75 13.652344 22.828125 13.644531 22.910156 13.640625 C 22.988281 13.632812 23.074219 13.628906 23.15625 13.628906 L 21.429688 11.597656 M 15.683594 4.832031 C 15.617188 4.839844 15.550781 4.847656 15.480469 4.851562 C 15.410156 4.855469 15.339844 4.859375 15.265625 4.863281 C 15.191406 4.863281 15.117188 4.863281 15.039062 4.863281 C 14.960938 4.863281 14.882812 4.859375 14.800781 4.855469 L 15.714844 5.945312 C 15.777344 5.933594 15.84375 5.921875 15.914062 5.914062 C 15.980469 5.902344 16.050781 5.898438 16.121094 5.890625 C 16.191406 5.882812 16.265625 5.878906 16.339844 5.875 C 16.414062 5.871094 16.488281 5.871094 16.566406 5.871094 L 15.683594 4.832031 "/>
        <path style=" stroke:none;fill-rule:nonzero;fill:rgb(9.411765%,56.862745%,67.45098%);fill-opacity:1;"
              d="M 26.671875 5.636719 C 26.621094 5.644531 26.566406 5.652344 26.511719 5.660156 C 26.457031 5.664062 26.398438 5.671875 26.339844 5.675781 C 26.28125 5.679688 26.21875 5.679688 26.15625 5.683594 C 26.09375 5.683594 26.027344 5.683594 25.960938 5.679688 L 26.960938 6.667969 C 27.015625 6.660156 27.070312 6.648438 27.125 6.640625 C 27.183594 6.632812 27.238281 6.628906 27.300781 6.625 C 27.359375 6.621094 27.417969 6.617188 27.480469 6.617188 C 27.542969 6.613281 27.609375 6.613281 27.675781 6.617188 L 26.671875 5.636719 "/>
        <path style=" stroke:none;fill-rule:nonzero;fill:rgb(9.411765%,56.862745%,67.45098%);fill-opacity:1;"
              d="M 20.324219 2.75 L 16.777344 2.421875 C 16.796875 2.445312 16.8125 2.464844 16.832031 2.488281 C 16.851562 2.511719 16.867188 2.535156 16.886719 2.558594 C 16.902344 2.582031 16.917969 2.605469 16.9375 2.628906 C 16.953125 2.652344 16.96875 2.675781 16.984375 2.699219 C 17 2.722656 17.015625 2.746094 17.027344 2.769531 C 17.042969 2.792969 17.058594 2.816406 17.070312 2.839844 C 17.082031 2.859375 17.097656 2.882812 17.109375 2.90625 C 17.121094 2.929688 17.132812 2.953125 17.140625 2.972656 L 20.710938 3.292969 C 20.691406 3.269531 20.671875 3.246094 20.652344 3.222656 C 20.632812 3.203125 20.617188 3.179688 20.597656 3.15625 C 20.578125 3.132812 20.5625 3.109375 20.542969 3.085938 C 20.527344 3.066406 20.511719 3.042969 20.492188 3.019531 C 20.476562 2.996094 20.460938 2.972656 20.445312 2.949219 C 20.429688 2.925781 20.417969 2.90625 20.402344 2.882812 C 20.386719 2.859375 20.375 2.839844 20.363281 2.816406 C 20.347656 2.792969 20.335938 2.773438 20.324219 2.75 "/>
        <path style=" stroke:none;fill-rule:nonzero;fill:rgb(9.411765%,56.862745%,67.45098%);fill-opacity:1;"
              d="M 14.277344 8.058594 L 9.863281 7.832031 C 9.886719 7.867188 9.910156 7.898438 9.929688 7.929688 C 9.949219 7.960938 9.972656 7.996094 9.988281 8.027344 C 10.011719 8.0625 10.027344 8.09375 10.046875 8.125 C 10.066406 8.160156 10.082031 8.191406 10.101562 8.226562 C 10.113281 8.253906 10.128906 8.28125 10.140625 8.308594 C 10.152344 8.335938 10.164062 8.363281 10.175781 8.390625 C 10.1875 8.417969 10.199219 8.445312 10.210938 8.46875 C 10.21875 8.496094 10.230469 8.523438 10.238281 8.550781 L 14.660156 8.753906 C 14.644531 8.726562 14.625 8.699219 14.605469 8.675781 C 14.585938 8.648438 14.570312 8.621094 14.554688 8.59375 C 14.535156 8.566406 14.519531 8.542969 14.503906 8.515625 C 14.488281 8.488281 14.472656 8.460938 14.457031 8.433594 C 14.4375 8.402344 14.421875 8.371094 14.402344 8.339844 C 14.386719 8.304688 14.371094 8.273438 14.355469 8.242188 C 14.339844 8.210938 14.328125 8.179688 14.3125 8.148438 C 14.300781 8.121094 14.289062 8.089844 14.277344 8.058594 M 26.113281 8.660156 L 22.425781 8.472656 C 22.453125 8.5 22.476562 8.53125 22.5 8.5625 C 22.523438 8.589844 22.550781 8.621094 22.574219 8.652344 C 22.59375 8.679688 22.621094 8.710938 22.640625 8.742188 C 22.664062 8.773438 22.683594 8.804688 22.707031 8.832031 C 22.722656 8.859375 22.738281 8.882812 22.757812 8.910156 C 22.773438 8.933594 22.789062 8.960938 22.804688 8.984375 C 22.820312 9.007812 22.835938 9.035156 22.847656 9.058594 C 22.863281 9.082031 22.875 9.109375 22.890625 9.132812 L 26.578125 9.300781 C 26.554688 9.277344 26.535156 9.253906 26.515625 9.230469 C 26.496094 9.203125 26.472656 9.179688 26.453125 9.15625 C 26.433594 9.132812 26.414062 9.105469 26.398438 9.082031 C 26.378906 9.058594 26.359375 9.035156 26.339844 9.007812 C 26.320312 8.980469 26.296875 8.949219 26.277344 8.921875 C 26.257812 8.890625 26.238281 8.863281 26.21875 8.832031 C 26.199219 8.804688 26.179688 8.773438 26.164062 8.746094 C 26.144531 8.71875 26.128906 8.6875 26.113281 8.660156 "/>
        <path style=" stroke:none;fill-rule:nonzero;fill:rgb(9.411765%,56.862745%,67.45098%);fill-opacity:1;"
              d="M 20.816406 16.683594 L 16.125 16.738281 C 16.152344 16.773438 16.175781 16.8125 16.199219 16.847656 C 16.222656 16.886719 16.246094 16.921875 16.269531 16.960938 C 16.292969 16.996094 16.316406 17.035156 16.335938 17.074219 C 16.355469 17.109375 16.378906 17.148438 16.398438 17.1875 C 16.417969 17.226562 16.4375 17.265625 16.457031 17.300781 C 16.476562 17.339844 16.496094 17.378906 16.511719 17.417969 C 16.527344 17.453125 16.546875 17.492188 16.5625 17.53125 C 16.578125 17.566406 16.59375 17.605469 16.605469 17.644531 L 21.335938 17.558594 C 21.308594 17.523438 21.28125 17.484375 21.253906 17.449219 C 21.230469 17.414062 21.203125 17.375 21.179688 17.339844 C 21.15625 17.304688 21.128906 17.265625 21.109375 17.230469 C 21.085938 17.191406 21.0625 17.15625 21.042969 17.117188 C 21.019531 17.082031 20.996094 17.046875 20.976562 17.007812 C 20.957031 16.972656 20.9375 16.933594 20.917969 16.898438 C 20.902344 16.863281 20.882812 16.828125 20.863281 16.789062 C 20.847656 16.753906 20.832031 16.71875 20.816406 16.683594 "/>
        <path style=" stroke:none;fill-rule:nonzero;fill:rgb(9.411765%,56.862745%,67.45098%);fill-opacity:1;"
              d="M 12.691406 20.445312 C 12.105469 20.464844 11.503906 20.394531 10.910156 20.246094 C 10.320312 20.09375 9.746094 19.863281 9.222656 19.578125 C 8.699219 19.289062 8.234375 18.945312 7.847656 18.5625 C 7.46875 18.179688 7.175781 17.761719 7 17.328125 C 6.824219 16.894531 6.777344 16.488281 6.847656 16.121094 C 6.914062 15.757812 7.089844 15.433594 7.355469 15.167969 C 7.621094 14.902344 7.972656 14.691406 8.402344 14.546875 C 8.820312 14.402344 9.316406 14.324219 9.867188 14.328125 C 10.414062 14.332031 10.96875 14.414062 11.507812 14.558594 C 12.042969 14.703125 12.5625 14.910156 13.039062 15.164062 C 13.515625 15.421875 13.957031 15.730469 14.328125 16.070312 C 14.699219 16.417969 15.003906 16.800781 15.210938 17.203125 C 15.425781 17.617188 15.515625 18.015625 15.503906 18.382812 C 15.492188 18.757812 15.371094 19.101562 15.152344 19.394531 C 14.929688 19.695312 14.605469 19.945312 14.195312 20.128906 C 13.777344 20.308594 13.273438 20.421875 12.691406 20.445312 M 9.46875 13.464844 C 9.464844 13.464844 9.457031 13.464844 9.453125 13.464844 C 9.449219 13.464844 9.441406 13.464844 9.4375 13.464844 C 9.429688 13.464844 9.425781 13.464844 9.417969 13.464844 C 9.414062 13.464844 9.40625 13.464844 9.402344 13.464844 C 9.296875 13.464844 9.195312 13.46875 9.09375 13.472656 C 8.996094 13.476562 8.894531 13.480469 8.796875 13.488281 C 8.703125 13.496094 8.605469 13.507812 8.507812 13.519531 C 8.414062 13.535156 8.324219 13.546875 8.230469 13.5625 C 7.703125 13.660156 7.238281 13.820312 6.84375 14.039062 C 6.441406 14.257812 6.117188 14.539062 5.878906 14.863281 C 5.636719 15.191406 5.484375 15.570312 5.4375 15.988281 C 5.394531 16.40625 5.457031 16.867188 5.640625 17.347656 C 5.867188 17.925781 6.25 18.480469 6.746094 18.988281 C 7.25 19.5 7.871094 19.957031 8.5625 20.339844 C 9.257812 20.722656 10.023438 21.027344 10.808594 21.226562 C 11.59375 21.421875 12.394531 21.515625 13.171875 21.480469 C 13.882812 21.449219 14.503906 21.3125 15.023438 21.09375 C 15.539062 20.878906 15.949219 20.582031 16.246094 20.230469 C 16.539062 19.882812 16.722656 19.476562 16.785156 19.035156 C 16.847656 18.601562 16.789062 18.132812 16.605469 17.644531 C 16.59375 17.605469 16.578125 17.570312 16.5625 17.53125 C 16.546875 17.492188 16.53125 17.457031 16.511719 17.417969 C 16.496094 17.378906 16.476562 17.339844 16.457031 17.300781 C 16.4375 17.265625 16.417969 17.226562 16.398438 17.1875 C 16.378906 17.148438 16.359375 17.113281 16.335938 17.074219 C 16.316406 17.035156 16.292969 17 16.269531 16.960938 C 16.246094 16.921875 16.222656 16.886719 16.199219 16.847656 C 16.175781 16.8125 16.152344 16.773438 16.125 16.738281 C 16.007812 16.566406 15.878906 16.398438 15.738281 16.238281 C 15.597656 16.074219 15.445312 15.917969 15.28125 15.765625 C 15.121094 15.617188 14.949219 15.46875 14.765625 15.332031 C 14.585938 15.191406 14.398438 15.058594 14.203125 14.929688 C 14.117188 14.875 14.023438 14.816406 13.933594 14.761719 C 13.839844 14.710938 13.75 14.65625 13.65625 14.601562 C 13.558594 14.550781 13.464844 14.5 13.367188 14.453125 C 13.273438 14.402344 13.171875 14.355469 13.074219 14.3125 C 12.796875 14.183594 12.507812 14.066406 12.214844 13.964844 C 11.921875 13.863281 11.621094 13.773438 11.320312 13.703125 C 11.015625 13.628906 10.707031 13.574219 10.398438 13.53125 C 10.089844 13.492188 9.777344 13.46875 9.46875 13.464844 "/>
        <path style=" stroke:none;fill-rule:nonzero;fill:rgb(9.411765%,56.862745%,67.45098%);fill-opacity:1;"
              d="M 27.386719 19.894531 C 26.917969 19.910156 26.414062 19.84375 25.90625 19.710938 C 25.394531 19.574219 24.886719 19.371094 24.402344 19.113281 C 23.921875 18.855469 23.46875 18.550781 23.082031 18.207031 C 22.695312 17.867188 22.367188 17.492188 22.128906 17.101562 C 21.898438 16.71875 21.773438 16.351562 21.75 16.023438 C 21.726562 15.695312 21.800781 15.40625 21.960938 15.164062 C 22.117188 14.925781 22.359375 14.734375 22.675781 14.605469 C 22.984375 14.476562 23.371094 14.40625 23.820312 14.40625 C 24.265625 14.410156 24.734375 14.484375 25.203125 14.617188 C 25.671875 14.746094 26.140625 14.933594 26.582031 15.164062 C 27.027344 15.394531 27.449219 15.671875 27.820312 15.984375 C 28.195312 16.292969 28.523438 16.636719 28.777344 17.003906 C 29.03125 17.375 29.191406 17.730469 29.253906 18.0625 C 29.320312 18.394531 29.289062 18.703125 29.171875 18.96875 C 29.050781 19.234375 28.839844 19.457031 28.539062 19.617188 C 28.242188 19.777344 27.851562 19.875 27.386719 19.894531 M 23.3125 13.628906 C 23.300781 13.628906 23.285156 13.628906 23.273438 13.628906 C 23.257812 13.628906 23.246094 13.628906 23.234375 13.628906 C 23.222656 13.628906 23.207031 13.628906 23.195312 13.628906 C 23.183594 13.628906 23.167969 13.628906 23.15625 13.628906 C 23.074219 13.628906 22.988281 13.632812 22.910156 13.640625 C 22.832031 13.644531 22.753906 13.652344 22.675781 13.660156 C 22.597656 13.667969 22.523438 13.679688 22.449219 13.695312 C 22.378906 13.707031 22.304688 13.722656 22.238281 13.738281 C 21.878906 13.824219 21.574219 13.957031 21.324219 14.132812 C 21.074219 14.304688 20.878906 14.523438 20.75 14.777344 C 20.621094 15.03125 20.554688 15.324219 20.5625 15.640625 C 20.570312 15.964844 20.652344 16.3125 20.816406 16.683594 C 20.832031 16.71875 20.847656 16.753906 20.867188 16.792969 C 20.882812 16.828125 20.902344 16.863281 20.921875 16.898438 C 20.941406 16.9375 20.957031 16.972656 20.976562 17.007812 C 21 17.046875 21.019531 17.082031 21.042969 17.121094 C 21.0625 17.15625 21.085938 17.195312 21.109375 17.230469 C 21.132812 17.265625 21.15625 17.304688 21.179688 17.339844 C 21.207031 17.378906 21.230469 17.414062 21.257812 17.449219 C 21.28125 17.488281 21.308594 17.523438 21.335938 17.558594 C 21.679688 18.027344 22.121094 18.46875 22.628906 18.871094 C 23.136719 19.273438 23.707031 19.636719 24.3125 19.933594 C 24.914062 20.230469 25.546875 20.464844 26.171875 20.617188 C 26.796875 20.769531 27.410156 20.839844 27.988281 20.816406 C 28.601562 20.785156 29.105469 20.652344 29.496094 20.433594 C 29.882812 20.214844 30.15625 19.917969 30.304688 19.5625 C 30.453125 19.214844 30.484375 18.808594 30.390625 18.371094 C 30.296875 17.9375 30.085938 17.46875 29.746094 16.992188 C 29.601562 16.789062 29.445312 16.59375 29.269531 16.402344 C 29.097656 16.214844 28.914062 16.03125 28.714844 15.859375 C 28.519531 15.683594 28.308594 15.515625 28.089844 15.355469 C 27.875 15.199219 27.648438 15.046875 27.414062 14.90625 C 27.328125 14.855469 27.242188 14.804688 27.15625 14.757812 C 27.070312 14.707031 26.980469 14.660156 26.894531 14.613281 C 26.804688 14.570312 26.714844 14.523438 26.625 14.480469 C 26.535156 14.4375 26.445312 14.394531 26.355469 14.355469 C 26.105469 14.246094 25.855469 14.144531 25.597656 14.054688 C 25.34375 13.96875 25.085938 13.890625 24.832031 13.832031 C 24.574219 13.765625 24.316406 13.71875 24.066406 13.683594 C 23.808594 13.652344 23.558594 13.628906 23.3125 13.628906 "/>
        <path style=" stroke:none;fill-rule:nonzero;fill:rgb(9.411765%,56.862745%,67.45098%);fill-opacity:1;"
              d="M 6.367188 10.472656 C 5.824219 10.453125 5.273438 10.367188 4.742188 10.21875 C 4.207031 10.074219 3.699219 9.871094 3.242188 9.625 C 2.785156 9.378906 2.382812 9.09375 2.058594 8.78125 C 1.742188 8.476562 1.503906 8.144531 1.375 7.804688 C 1.246094 7.46875 1.238281 7.160156 1.328125 6.882812 C 1.417969 6.613281 1.609375 6.375 1.875 6.1875 C 2.140625 6 2.484375 5.855469 2.894531 5.769531 C 3.296875 5.683594 3.761719 5.652344 4.273438 5.6875 C 4.78125 5.71875 5.289062 5.8125 5.777344 5.949219 C 6.261719 6.089844 6.730469 6.277344 7.152344 6.5 C 7.574219 6.722656 7.957031 6.980469 8.269531 7.261719 C 8.585938 7.542969 8.835938 7.851562 8.992188 8.171875 C 9.148438 8.496094 9.199219 8.804688 9.15625 9.082031 C 9.109375 9.363281 8.964844 9.613281 8.734375 9.824219 C 8.5 10.039062 8.175781 10.207031 7.78125 10.320312 C 7.378906 10.433594 6.902344 10.488281 6.367188 10.472656 M 3.976562 5.003906 C 3.308594 4.960938 2.703125 4.996094 2.175781 5.105469 C 1.640625 5.214844 1.1875 5.394531 0.832031 5.636719 C 0.476562 5.878906 0.21875 6.183594 0.09375 6.535156 C -0.0351562 6.894531 -0.0351562 7.304688 0.125 7.746094 C 0.289062 8.191406 0.59375 8.632812 1.015625 9.039062 C 1.4375 9.453125 1.96875 9.832031 2.574219 10.15625 C 3.179688 10.484375 3.855469 10.753906 4.5625 10.945312 C 5.265625 11.140625 5.996094 11.253906 6.714844 11.273438 C 6.71875 11.273438 6.726562 11.273438 6.730469 11.273438 C 6.738281 11.273438 6.742188 11.273438 6.75 11.273438 C 6.753906 11.273438 6.757812 11.273438 6.765625 11.273438 C 6.769531 11.273438 6.777344 11.273438 6.78125 11.273438 C 6.882812 11.277344 6.988281 11.277344 7.085938 11.273438 C 7.1875 11.273438 7.285156 11.265625 7.378906 11.261719 C 7.476562 11.253906 7.570312 11.246094 7.664062 11.238281 C 7.753906 11.226562 7.84375 11.214844 7.933594 11.203125 C 8.398438 11.128906 8.804688 11.007812 9.144531 10.84375 C 9.484375 10.679688 9.753906 10.476562 9.957031 10.242188 C 10.152344 10.007812 10.28125 9.746094 10.328125 9.457031 C 10.378906 9.175781 10.347656 8.871094 10.238281 8.550781 C 10.230469 8.523438 10.21875 8.496094 10.207031 8.46875 C 10.199219 8.445312 10.1875 8.417969 10.175781 8.390625 C 10.164062 8.363281 10.152344 8.335938 10.140625 8.308594 C 10.125 8.28125 10.113281 8.253906 10.101562 8.226562 C 10.082031 8.191406 10.066406 8.160156 10.046875 8.125 C 10.027344 8.09375 10.007812 8.0625 9.988281 8.027344 C 9.96875 7.996094 9.949219 7.964844 9.929688 7.929688 C 9.90625 7.898438 9.886719 7.867188 9.863281 7.832031 C 9.773438 7.707031 9.671875 7.578125 9.5625 7.457031 C 9.453125 7.332031 9.332031 7.214844 9.207031 7.097656 C 9.078125 6.980469 8.941406 6.867188 8.796875 6.753906 C 8.652344 6.644531 8.5 6.539062 8.34375 6.4375 C 8.265625 6.386719 8.1875 6.339844 8.109375 6.292969 C 8.03125 6.246094 7.949219 6.199219 7.867188 6.152344 C 7.785156 6.105469 7.699219 6.0625 7.617188 6.019531 C 7.53125 5.976562 7.445312 5.933594 7.355469 5.890625 C 7.101562 5.773438 6.835938 5.664062 6.566406 5.5625 C 6.292969 5.464844 6.011719 5.375 5.730469 5.300781 C 5.445312 5.222656 5.152344 5.160156 4.859375 5.109375 C 4.566406 5.058594 4.269531 5.023438 3.976562 5.003906 "/>
        <path style=" stroke:none;fill-rule:nonzero;fill:rgb(9.411765%,56.862745%,67.45098%);fill-opacity:1;"
              d="M 20.136719 10.910156 C 19.691406 10.894531 19.222656 10.816406 18.757812 10.683594 C 18.292969 10.550781 17.832031 10.367188 17.40625 10.144531 C 16.980469 9.921875 16.589844 9.664062 16.261719 9.378906 C 15.929688 9.097656 15.664062 8.796875 15.484375 8.484375 C 15.300781 8.175781 15.222656 7.890625 15.234375 7.640625 C 15.246094 7.386719 15.347656 7.167969 15.523438 6.992188 C 15.695312 6.820312 15.945312 6.683594 16.257812 6.601562 C 16.566406 6.519531 16.941406 6.488281 17.367188 6.515625 C 17.789062 6.542969 18.226562 6.625 18.660156 6.75 C 19.089844 6.878906 19.511719 7.046875 19.90625 7.25 C 20.304688 7.453125 20.671875 7.691406 20.992188 7.949219 C 21.3125 8.210938 21.585938 8.496094 21.785156 8.789062 C 21.984375 9.085938 22.09375 9.371094 22.113281 9.625 C 22.136719 9.882812 22.074219 10.117188 21.929688 10.308594 C 21.785156 10.503906 21.558594 10.660156 21.257812 10.765625 C 20.957031 10.871094 20.578125 10.921875 20.136719 10.910156 M 16.96875 5.886719 C 16.933594 5.882812 16.902344 5.878906 16.867188 5.878906 C 16.832031 5.878906 16.796875 5.875 16.765625 5.875 C 16.730469 5.871094 16.699219 5.871094 16.664062 5.871094 C 16.632812 5.871094 16.597656 5.871094 16.566406 5.871094 C 16.488281 5.871094 16.414062 5.871094 16.339844 5.875 C 16.265625 5.878906 16.191406 5.882812 16.121094 5.890625 C 16.050781 5.898438 15.980469 5.902344 15.914062 5.914062 C 15.84375 5.921875 15.777344 5.933594 15.714844 5.945312 C 15.40625 6.007812 15.140625 6.097656 14.917969 6.222656 C 14.691406 6.34375 14.511719 6.5 14.382812 6.679688 C 14.253906 6.863281 14.175781 7.070312 14.15625 7.300781 C 14.132812 7.53125 14.171875 7.785156 14.277344 8.058594 C 14.289062 8.089844 14.300781 8.121094 14.3125 8.152344 C 14.328125 8.179688 14.339844 8.210938 14.355469 8.246094 C 14.371094 8.277344 14.386719 8.308594 14.402344 8.339844 C 14.421875 8.371094 14.4375 8.402344 14.457031 8.433594 C 14.472656 8.460938 14.488281 8.488281 14.503906 8.515625 C 14.519531 8.542969 14.535156 8.570312 14.554688 8.59375 C 14.570312 8.621094 14.585938 8.648438 14.605469 8.675781 C 14.625 8.699219 14.644531 8.726562 14.660156 8.753906 C 14.773438 8.910156 14.902344 9.066406 15.046875 9.214844 C 15.191406 9.367188 15.347656 9.515625 15.519531 9.660156 C 15.6875 9.804688 15.871094 9.941406 16.0625 10.078125 C 16.257812 10.210938 16.460938 10.339844 16.671875 10.460938 C 16.753906 10.507812 16.839844 10.554688 16.925781 10.601562 C 17.011719 10.648438 17.101562 10.691406 17.1875 10.738281 C 17.277344 10.78125 17.367188 10.824219 17.457031 10.863281 C 17.546875 10.90625 17.640625 10.945312 17.730469 10.984375 C 17.957031 11.078125 18.183594 11.160156 18.414062 11.238281 C 18.644531 11.3125 18.875 11.378906 19.109375 11.433594 C 19.339844 11.492188 19.570312 11.535156 19.800781 11.570312 C 20.027344 11.601562 20.253906 11.625 20.476562 11.636719 C 20.488281 11.636719 20.496094 11.636719 20.507812 11.636719 C 20.515625 11.636719 20.527344 11.636719 20.535156 11.636719 C 20.546875 11.636719 20.558594 11.640625 20.566406 11.640625 C 20.578125 11.640625 20.585938 11.640625 20.597656 11.640625 C 20.671875 11.640625 20.746094 11.644531 20.816406 11.640625 C 20.890625 11.640625 20.960938 11.636719 21.03125 11.636719 C 21.101562 11.632812 21.167969 11.625 21.234375 11.617188 C 21.300781 11.613281 21.363281 11.605469 21.425781 11.597656 C 21.820312 11.539062 22.148438 11.433594 22.414062 11.285156 C 22.675781 11.136719 22.871094 10.949219 23 10.730469 C 23.121094 10.511719 23.179688 10.265625 23.160156 9.996094 C 23.144531 9.726562 23.054688 9.4375 22.890625 9.132812 C 22.875 9.109375 22.863281 9.082031 22.847656 9.058594 C 22.832031 9.035156 22.820312 9.011719 22.804688 8.984375 C 22.789062 8.960938 22.773438 8.933594 22.757812 8.910156 C 22.738281 8.886719 22.722656 8.859375 22.707031 8.835938 C 22.683594 8.804688 22.664062 8.773438 22.640625 8.742188 C 22.617188 8.710938 22.59375 8.683594 22.574219 8.652344 C 22.550781 8.621094 22.523438 8.59375 22.5 8.5625 C 22.476562 8.53125 22.453125 8.503906 22.425781 8.472656 C 22.332031 8.367188 22.234375 8.261719 22.128906 8.15625 C 22.023438 8.054688 21.910156 7.953125 21.792969 7.851562 C 21.675781 7.753906 21.554688 7.65625 21.425781 7.5625 C 21.300781 7.46875 21.167969 7.378906 21.03125 7.289062 C 20.957031 7.242188 20.886719 7.195312 20.8125 7.152344 C 20.738281 7.105469 20.660156 7.0625 20.585938 7.019531 C 20.507812 6.976562 20.429688 6.933594 20.351562 6.890625 C 20.273438 6.851562 20.195312 6.8125 20.117188 6.773438 C 19.867188 6.648438 19.613281 6.539062 19.355469 6.4375 C 19.09375 6.339844 18.832031 6.25 18.566406 6.171875 C 18.300781 6.097656 18.03125 6.035156 17.765625 5.984375 C 17.5 5.9375 17.230469 5.902344 16.96875 5.886719 "/>
        <path style=" stroke:none;fill-rule:nonzero;fill:rgb(9.411765%,56.862745%,67.45098%);fill-opacity:1;"
              d="M 31.554688 11.273438 C 31.183594 11.261719 30.777344 11.1875 30.367188 11.070312 C 29.953125 10.949219 29.535156 10.777344 29.136719 10.574219 C 28.738281 10.371094 28.363281 10.132812 28.03125 9.875 C 27.699219 9.617188 27.417969 9.335938 27.203125 9.050781 C 26.988281 8.765625 26.863281 8.503906 26.820312 8.265625 C 26.777344 8.035156 26.8125 7.832031 26.921875 7.664062 C 27.03125 7.503906 27.207031 7.375 27.449219 7.296875 C 27.6875 7.21875 27.992188 7.1875 28.351562 7.210938 C 28.710938 7.234375 29.09375 7.308594 29.476562 7.425781 C 29.863281 7.539062 30.25 7.695312 30.625 7.882812 C 30.996094 8.074219 31.351562 8.289062 31.671875 8.53125 C 31.992188 8.769531 32.273438 9.03125 32.5 9.304688 C 32.726562 9.582031 32.875 9.84375 32.945312 10.082031 C 33.015625 10.320312 33.007812 10.535156 32.925781 10.714844 C 32.84375 10.894531 32.6875 11.039062 32.457031 11.136719 C 32.226562 11.234375 31.925781 11.285156 31.554688 11.273438 M 27.890625 6.625 C 27.871094 6.625 27.855469 6.621094 27.835938 6.621094 C 27.816406 6.621094 27.800781 6.621094 27.78125 6.617188 C 27.761719 6.617188 27.746094 6.617188 27.726562 6.617188 C 27.710938 6.617188 27.691406 6.617188 27.675781 6.617188 C 27.609375 6.613281 27.542969 6.613281 27.484375 6.617188 C 27.417969 6.617188 27.359375 6.621094 27.300781 6.625 C 27.242188 6.628906 27.183594 6.632812 27.125 6.640625 C 27.070312 6.648438 27.015625 6.65625 26.964844 6.667969 C 26.699219 6.71875 26.480469 6.800781 26.304688 6.914062 C 26.132812 7.03125 26.003906 7.175781 25.925781 7.347656 C 25.847656 7.515625 25.820312 7.714844 25.847656 7.933594 C 25.878906 8.15625 25.964844 8.398438 26.113281 8.660156 C 26.128906 8.6875 26.144531 8.71875 26.164062 8.746094 C 26.179688 8.773438 26.199219 8.804688 26.21875 8.832031 C 26.238281 8.863281 26.257812 8.890625 26.277344 8.921875 C 26.296875 8.949219 26.320312 8.980469 26.339844 9.007812 C 26.359375 9.035156 26.378906 9.058594 26.398438 9.082031 C 26.414062 9.105469 26.433594 9.132812 26.453125 9.15625 C 26.472656 9.179688 26.496094 9.203125 26.515625 9.230469 C 26.535156 9.253906 26.554688 9.277344 26.578125 9.300781 C 26.695312 9.433594 26.820312 9.566406 26.957031 9.695312 C 27.09375 9.820312 27.242188 9.949219 27.394531 10.070312 C 27.550781 10.195312 27.710938 10.3125 27.882812 10.429688 C 28.050781 10.546875 28.226562 10.65625 28.40625 10.761719 C 28.484375 10.808594 28.566406 10.851562 28.644531 10.894531 C 28.722656 10.941406 28.804688 10.984375 28.886719 11.023438 C 28.964844 11.066406 29.046875 11.105469 29.128906 11.144531 C 29.210938 11.183594 29.296875 11.222656 29.378906 11.257812 C 29.609375 11.363281 29.839844 11.453125 30.070312 11.535156 C 30.304688 11.617188 30.535156 11.6875 30.765625 11.746094 C 30.996094 11.804688 31.222656 11.851562 31.441406 11.882812 C 31.664062 11.917969 31.878906 11.9375 32.085938 11.941406 C 32.570312 11.957031 32.96875 11.886719 33.269531 11.753906 C 33.5625 11.625 33.765625 11.429688 33.867188 11.191406 C 33.96875 10.953125 33.96875 10.667969 33.871094 10.355469 C 33.777344 10.042969 33.578125 9.703125 33.28125 9.34375 C 32.980469 8.988281 32.609375 8.648438 32.195312 8.335938 C 31.777344 8.027344 31.316406 7.746094 30.832031 7.5 C 30.351562 7.257812 29.851562 7.054688 29.351562 6.90625 C 28.851562 6.753906 28.355469 6.65625 27.890625 6.625 "/>
        <path style=" stroke:none;fill-rule:nonzero;fill:rgb(9.411765%,56.862745%,67.45098%);fill-opacity:1;"
              d="M 14.28125 4.238281 C 13.855469 4.207031 13.414062 4.121094 12.980469 3.992188 C 12.546875 3.863281 12.125 3.691406 11.738281 3.492188 C 11.351562 3.292969 11.003906 3.066406 10.714844 2.824219 C 10.425781 2.582031 10.199219 2.328125 10.054688 2.066406 C 9.910156 1.8125 9.863281 1.578125 9.898438 1.375 C 9.9375 1.171875 10.054688 1 10.238281 0.867188 C 10.421875 0.734375 10.675781 0.636719 10.984375 0.585938 C 11.292969 0.535156 11.65625 0.523438 12.0625 0.566406 C 12.46875 0.609375 12.882812 0.699219 13.285156 0.820312 C 13.6875 0.941406 14.082031 1.101562 14.441406 1.285156 C 14.804688 1.46875 15.136719 1.675781 15.417969 1.902344 C 15.703125 2.128906 15.933594 2.371094 16.09375 2.617188 C 16.257812 2.867188 16.332031 3.101562 16.328125 3.304688 C 16.320312 3.515625 16.234375 3.699219 16.074219 3.847656 C 15.914062 4 15.675781 4.113281 15.378906 4.179688 C 15.074219 4.25 14.707031 4.273438 14.28125 4.238281 M 11.742188 0.0390625 C 11.210938 -0.0195312 10.738281 -0.0117188 10.335938 0.0546875 C 9.929688 0.121094 9.597656 0.242188 9.351562 0.414062 C 9.101562 0.585938 8.941406 0.808594 8.886719 1.070312 C 8.835938 1.335938 8.890625 1.640625 9.074219 1.980469 C 9.148438 2.117188 9.238281 2.253906 9.347656 2.386719 C 9.457031 2.523438 9.582031 2.660156 9.722656 2.789062 C 9.863281 2.921875 10.015625 3.050781 10.183594 3.179688 C 10.351562 3.304688 10.53125 3.425781 10.71875 3.542969 C 10.792969 3.589844 10.867188 3.632812 10.941406 3.675781 C 11.015625 3.71875 11.089844 3.761719 11.167969 3.804688 C 11.246094 3.84375 11.324219 3.886719 11.40625 3.925781 C 11.484375 3.964844 11.566406 4.003906 11.648438 4.039062 C 11.882812 4.148438 12.128906 4.25 12.375 4.339844 C 12.625 4.429688 12.875 4.507812 13.132812 4.578125 C 13.386719 4.648438 13.640625 4.707031 13.894531 4.75 C 14.148438 4.796875 14.402344 4.828125 14.648438 4.847656 C 14.664062 4.847656 14.675781 4.847656 14.6875 4.847656 C 14.703125 4.851562 14.714844 4.851562 14.726562 4.851562 C 14.738281 4.851562 14.75 4.851562 14.765625 4.855469 C 14.777344 4.855469 14.789062 4.855469 14.800781 4.855469 C 14.882812 4.859375 14.960938 4.863281 15.039062 4.863281 C 15.113281 4.863281 15.191406 4.863281 15.265625 4.863281 C 15.335938 4.859375 15.410156 4.855469 15.480469 4.851562 C 15.546875 4.847656 15.617188 4.839844 15.683594 4.832031 C 16.019531 4.789062 16.3125 4.714844 16.550781 4.605469 C 16.785156 4.496094 16.96875 4.355469 17.097656 4.195312 C 17.222656 4.03125 17.289062 3.84375 17.300781 3.636719 C 17.308594 3.433594 17.257812 3.210938 17.140625 2.972656 C 17.128906 2.949219 17.121094 2.929688 17.105469 2.90625 C 17.09375 2.882812 17.082031 2.859375 17.070312 2.835938 C 17.054688 2.8125 17.042969 2.792969 17.027344 2.769531 C 17.015625 2.746094 17 2.722656 16.984375 2.699219 C 16.96875 2.675781 16.953125 2.652344 16.933594 2.628906 C 16.917969 2.605469 16.902344 2.582031 16.882812 2.558594 C 16.867188 2.535156 16.847656 2.511719 16.832031 2.488281 C 16.8125 2.464844 16.792969 2.445312 16.773438 2.421875 C 16.53125 2.128906 16.214844 1.84375 15.847656 1.582031 C 15.480469 1.324219 15.066406 1.082031 14.621094 0.871094 C 14.175781 0.660156 13.699219 0.476562 13.214844 0.335938 C 12.730469 0.191406 12.234375 0.0898438 11.742188 0.0390625 "/>
        <path style=" stroke:none;fill-rule:nonzero;fill:rgb(9.411765%,56.862745%,67.45098%);fill-opacity:1;"
              d="M 25.308594 5.101562 C 24.945312 5.074219 24.558594 4.996094 24.171875 4.878906 C 23.785156 4.761719 23.398438 4.605469 23.035156 4.417969 C 22.671875 4.234375 22.332031 4.027344 22.039062 3.800781 C 21.746094 3.574219 21.503906 3.335938 21.324219 3.09375 C 21.152344 2.855469 21.058594 2.632812 21.046875 2.441406 C 21.027344 2.25 21.089844 2.085938 21.214844 1.957031 C 21.339844 1.832031 21.527344 1.738281 21.769531 1.6875 C 22.015625 1.632812 22.316406 1.621094 22.664062 1.65625 C 23.011719 1.695312 23.378906 1.773438 23.742188 1.886719 C 24.105469 2 24.464844 2.144531 24.808594 2.316406 C 25.148438 2.488281 25.472656 2.683594 25.757812 2.894531 C 26.039062 3.101562 26.285156 3.328125 26.472656 3.5625 C 26.664062 3.796875 26.773438 4.015625 26.8125 4.210938 C 26.851562 4.40625 26.820312 4.582031 26.71875 4.71875 C 26.613281 4.863281 26.441406 4.972656 26.207031 5.039062 C 25.96875 5.105469 25.667969 5.128906 25.308594 5.101562 M 22.28125 1.160156 C 21.859375 1.113281 21.492188 1.121094 21.183594 1.175781 C 20.875 1.230469 20.628906 1.328125 20.453125 1.46875 C 20.273438 1.609375 20.167969 1.792969 20.140625 2.007812 C 20.117188 2.222656 20.175781 2.472656 20.324219 2.75 C 20.335938 2.773438 20.347656 2.792969 20.359375 2.816406 C 20.375 2.839844 20.386719 2.859375 20.402344 2.882812 C 20.414062 2.90625 20.429688 2.925781 20.445312 2.949219 C 20.460938 2.972656 20.476562 2.996094 20.492188 3.019531 C 20.511719 3.042969 20.527344 3.066406 20.542969 3.085938 C 20.5625 3.109375 20.578125 3.132812 20.597656 3.15625 C 20.613281 3.179688 20.632812 3.203125 20.652344 3.222656 C 20.671875 3.246094 20.691406 3.269531 20.710938 3.292969 C 20.804688 3.402344 20.910156 3.507812 21.023438 3.609375 C 21.136719 3.714844 21.257812 3.820312 21.386719 3.921875 C 21.515625 4.023438 21.652344 4.121094 21.792969 4.21875 C 21.933594 4.316406 22.085938 4.410156 22.238281 4.5 C 22.308594 4.539062 22.378906 4.582031 22.449219 4.621094 C 22.523438 4.660156 22.59375 4.699219 22.667969 4.738281 C 22.742188 4.773438 22.816406 4.8125 22.890625 4.847656 C 22.96875 4.882812 23.042969 4.917969 23.117188 4.953125 C 23.335938 5.050781 23.554688 5.140625 23.777344 5.222656 C 24 5.300781 24.222656 5.375 24.441406 5.433594 C 24.667969 5.496094 24.886719 5.546875 25.105469 5.585938 C 25.320312 5.625 25.535156 5.652344 25.742188 5.667969 C 25.761719 5.671875 25.777344 5.671875 25.796875 5.671875 C 25.816406 5.675781 25.835938 5.675781 25.851562 5.675781 C 25.871094 5.675781 25.890625 5.679688 25.90625 5.679688 C 25.925781 5.679688 25.945312 5.679688 25.960938 5.679688 C 26.027344 5.683594 26.09375 5.683594 26.15625 5.683594 C 26.21875 5.679688 26.277344 5.679688 26.339844 5.675781 C 26.398438 5.671875 26.453125 5.667969 26.511719 5.660156 C 26.566406 5.652344 26.621094 5.644531 26.671875 5.636719 C 26.957031 5.585938 27.183594 5.496094 27.355469 5.375 C 27.523438 5.257812 27.632812 5.105469 27.683594 4.925781 C 27.730469 4.753906 27.71875 4.550781 27.644531 4.332031 C 27.570312 4.117188 27.433594 3.878906 27.234375 3.632812 C 26.984375 3.328125 26.664062 3.035156 26.292969 2.761719 C 25.921875 2.488281 25.503906 2.238281 25.0625 2.015625 C 24.617188 1.796875 24.148438 1.605469 23.679688 1.457031 C 23.210938 1.3125 22.734375 1.207031 22.28125 1.160156 "/>
    </g>
</svg>