<?xml version="1.0" encoding="UTF-8"?>
<svg xmlns="http://www.w3.org/2000/svg" width="16px" height="16px" viewBox="0 0 16 16" version="1.1">
    <g id="surface1">
        <path style=" stroke:none;fill-rule:nonzero;fill:rgb(9.411765%,56.862745%,67.45098%);fill-opacity:1;"
              d="M 4.289062 1.417969 L 2.941406 2.355469 C 2.976562 2.375 3.011719 2.390625 3.046875 2.40625 C 3.078125 2.425781 3.113281 2.441406 3.148438 2.460938 C 3.179688 2.480469 3.210938 2.5 3.242188 2.515625 C 3.273438 2.535156 3.304688 2.554688 3.335938 2.574219 L 4.660156 1.617188 C 4.625 1.601562 4.59375 1.585938 4.5625 1.570312 C 4.53125 1.554688 4.5 1.539062 4.46875 1.523438 C 4.4375 1.503906 4.40625 1.488281 4.375 1.46875 C 4.347656 1.453125 4.316406 1.4375 4.289062 1.417969 "/>
        <path style=" stroke:none;fill-rule:nonzero;fill:rgb(9.411765%,56.862745%,67.45098%);fill-opacity:1;"
              d="M 6.667969 4.183594 L 5.230469 5.726562 C 5.269531 5.742188 5.308594 5.761719 5.347656 5.78125 C 5.386719 5.800781 5.421875 5.820312 5.460938 5.839844 C 5.5 5.863281 5.535156 5.882812 5.574219 5.90625 C 5.609375 5.925781 5.648438 5.949219 5.679688 5.972656 L 7.09375 4.394531 C 7.054688 4.378906 7.019531 4.363281 6.984375 4.34375 C 6.945312 4.328125 6.910156 4.3125 6.875 4.296875 C 6.839844 4.277344 6.804688 4.257812 6.769531 4.242188 C 6.734375 4.222656 6.703125 4.203125 6.667969 4.183594 M 8.894531 1.800781 L 8.046875 2.707031 C 8.078125 2.726562 8.109375 2.742188 8.140625 2.757812 C 8.171875 2.773438 8.203125 2.789062 8.234375 2.808594 C 8.265625 2.824219 8.296875 2.84375 8.324219 2.859375 C 8.355469 2.878906 8.382812 2.898438 8.414062 2.914062 L 9.25 1.980469 C 9.21875 1.96875 9.1875 1.953125 9.15625 1.9375 C 9.125 1.925781 9.097656 1.910156 9.066406 1.894531 C 9.039062 1.878906 9.007812 1.863281 8.980469 1.847656 C 8.953125 1.832031 8.921875 1.816406 8.894531 1.800781 "/>
        <path style=" stroke:none;fill-rule:nonzero;fill:rgb(9.411765%,56.862745%,67.45098%);fill-opacity:1;"
              d="M 11.363281 4.304688 L 10.542969 5.742188 C 10.578125 5.757812 10.613281 5.773438 10.648438 5.792969 C 10.6875 5.808594 10.722656 5.828125 10.757812 5.84375 C 10.792969 5.863281 10.828125 5.882812 10.863281 5.902344 C 10.898438 5.921875 10.929688 5.941406 10.964844 5.960938 L 11.75 4.503906 C 11.71875 4.488281 11.683594 4.472656 11.652344 4.457031 C 11.617188 4.441406 11.585938 4.425781 11.554688 4.410156 C 11.523438 4.394531 11.488281 4.375 11.457031 4.359375 C 11.425781 4.339844 11.394531 4.324219 11.363281 4.304688 "/>
        <path style=" stroke:none;fill-rule:nonzero;fill:rgb(9.411765%,56.862745%,67.45098%);fill-opacity:1;"
              d="M 3.171875 4.480469 C 3.140625 4.484375 3.101562 4.492188 3.066406 4.496094 C 3.027344 4.5 2.992188 4.5 2.953125 4.503906 C 2.914062 4.507812 2.875 4.507812 2.835938 4.507812 C 2.796875 4.511719 2.753906 4.511719 2.710938 4.507812 L 3.292969 5.425781 C 3.328125 5.417969 3.367188 5.414062 3.402344 5.40625 C 3.441406 5.402344 3.480469 5.398438 3.519531 5.394531 C 3.558594 5.390625 3.597656 5.390625 3.636719 5.390625 C 3.679688 5.386719 3.71875 5.386719 3.761719 5.386719 L 3.171875 4.480469 "/>
        <path style=" stroke:none;fill-rule:nonzero;fill:rgb(9.411765%,56.862745%,67.45098%);fill-opacity:1;"
              d="M 8.570312 4.640625 C 8.546875 4.640625 8.519531 4.644531 8.492188 4.648438 C 8.46875 4.648438 8.441406 4.652344 8.414062 4.65625 C 8.382812 4.65625 8.355469 4.65625 8.328125 4.65625 C 8.296875 4.65625 8.269531 4.65625 8.238281 4.65625 C 8.234375 4.65625 8.230469 4.65625 8.226562 4.65625 C 8.222656 4.65625 8.21875 4.65625 8.214844 4.65625 C 8.210938 4.65625 8.207031 4.65625 8.203125 4.65625 C 8.199219 4.65625 8.195312 4.65625 8.191406 4.65625 L 8.894531 5.496094 C 8.921875 5.488281 8.949219 5.484375 8.980469 5.476562 C 9.007812 5.472656 9.039062 5.46875 9.070312 5.464844 C 9.101562 5.460938 9.132812 5.457031 9.164062 5.457031 C 9.195312 5.453125 9.230469 5.453125 9.261719 5.453125 L 8.570312 4.640625 M 6.273438 1.933594 C 6.246094 1.9375 6.21875 1.9375 6.191406 1.941406 C 6.164062 1.941406 6.136719 1.945312 6.105469 1.945312 C 6.078125 1.945312 6.046875 1.945312 6.015625 1.945312 C 5.984375 1.945312 5.953125 1.945312 5.921875 1.941406 L 6.285156 2.378906 C 6.3125 2.375 6.335938 2.367188 6.367188 2.367188 C 6.390625 2.359375 6.421875 2.359375 6.449219 2.355469 C 6.476562 2.351562 6.507812 2.351562 6.535156 2.351562 C 6.566406 2.347656 6.59375 2.347656 6.625 2.347656 L 6.273438 1.933594 "/>
        <path style=" stroke:none;fill-rule:nonzero;fill:rgb(9.411765%,56.862745%,67.45098%);fill-opacity:1;"
              d="M 10.667969 2.253906 C 10.648438 2.257812 10.625 2.261719 10.605469 2.265625 C 10.582031 2.265625 10.558594 2.269531 10.535156 2.269531 C 10.511719 2.273438 10.488281 2.273438 10.460938 2.273438 C 10.4375 2.273438 10.410156 2.273438 10.382812 2.273438 L 10.785156 2.667969 C 10.804688 2.664062 10.828125 2.660156 10.851562 2.65625 C 10.875 2.652344 10.894531 2.652344 10.921875 2.648438 C 10.945312 2.648438 10.96875 2.648438 10.992188 2.648438 C 11.015625 2.644531 11.042969 2.644531 11.070312 2.648438 L 10.667969 2.253906 "/>
        <path style=" stroke:none;fill-rule:nonzero;fill:rgb(9.411765%,56.862745%,67.45098%);fill-opacity:1;"
              d="M 8.128906 1.101562 L 6.710938 0.96875 C 6.71875 0.976562 6.726562 0.984375 6.734375 0.996094 C 6.742188 1.003906 6.746094 1.015625 6.753906 1.023438 C 6.761719 1.03125 6.765625 1.042969 6.773438 1.050781 C 6.78125 1.0625 6.789062 1.070312 6.792969 1.078125 C 6.800781 1.089844 6.804688 1.097656 6.8125 1.109375 C 6.816406 1.117188 6.824219 1.125 6.828125 1.136719 C 6.832031 1.144531 6.839844 1.152344 6.84375 1.164062 C 6.847656 1.171875 6.851562 1.179688 6.855469 1.1875 L 8.285156 1.316406 C 8.277344 1.308594 8.269531 1.296875 8.261719 1.289062 C 8.253906 1.28125 8.246094 1.273438 8.238281 1.261719 C 8.230469 1.253906 8.226562 1.242188 8.21875 1.234375 C 8.210938 1.226562 8.203125 1.21875 8.195312 1.207031 C 8.191406 1.199219 8.183594 1.1875 8.179688 1.179688 C 8.171875 1.171875 8.167969 1.164062 8.160156 1.152344 C 8.15625 1.144531 8.148438 1.136719 8.144531 1.125 C 8.140625 1.117188 8.132812 1.109375 8.128906 1.101562 "/>
        <path style=" stroke:none;fill-rule:nonzero;fill:rgb(9.411765%,56.862745%,67.45098%);fill-opacity:1;"
              d="M 5.710938 3.222656 L 3.945312 3.132812 C 3.953125 3.148438 3.964844 3.160156 3.972656 3.171875 C 3.980469 3.183594 3.988281 3.199219 3.996094 3.210938 C 4.003906 3.226562 4.011719 3.238281 4.019531 3.25 C 4.027344 3.265625 4.03125 3.277344 4.039062 3.289062 C 4.046875 3.300781 4.050781 3.3125 4.054688 3.324219 C 4.0625 3.335938 4.066406 3.34375 4.070312 3.355469 C 4.074219 3.367188 4.078125 3.378906 4.085938 3.386719 C 4.085938 3.398438 4.09375 3.410156 4.09375 3.421875 L 5.863281 3.5 C 5.859375 3.492188 5.851562 3.480469 5.84375 3.46875 C 5.835938 3.460938 5.828125 3.449219 5.820312 3.4375 C 5.8125 3.425781 5.808594 3.417969 5.800781 3.40625 C 5.796875 3.394531 5.789062 3.382812 5.78125 3.375 C 5.773438 3.359375 5.769531 3.347656 5.761719 3.335938 C 5.753906 3.320312 5.75 3.308594 5.742188 3.296875 C 5.734375 3.285156 5.730469 3.273438 5.726562 3.257812 C 5.71875 3.25 5.714844 3.234375 5.710938 3.222656 M 10.445312 3.464844 L 8.96875 3.390625 C 8.980469 3.398438 8.992188 3.414062 9 3.425781 C 9.007812 3.4375 9.019531 3.449219 9.03125 3.460938 C 9.039062 3.472656 9.046875 3.484375 9.054688 3.496094 C 9.066406 3.507812 9.074219 3.523438 9.082031 3.53125 C 9.089844 3.542969 9.09375 3.554688 9.101562 3.5625 C 9.109375 3.574219 9.117188 3.585938 9.121094 3.59375 C 9.128906 3.601562 9.132812 3.613281 9.140625 3.625 C 9.144531 3.632812 9.148438 3.644531 9.15625 3.652344 L 10.632812 3.71875 C 10.621094 3.710938 10.613281 3.703125 10.605469 3.691406 C 10.597656 3.679688 10.589844 3.671875 10.582031 3.664062 C 10.574219 3.652344 10.566406 3.640625 10.558594 3.632812 C 10.550781 3.625 10.542969 3.613281 10.535156 3.601562 C 10.527344 3.59375 10.519531 3.578125 10.511719 3.570312 C 10.503906 3.554688 10.496094 3.546875 10.488281 3.53125 C 10.480469 3.523438 10.472656 3.507812 10.464844 3.5 C 10.457031 3.488281 10.453125 3.476562 10.445312 3.464844 "/>
        <path style=" stroke:none;fill-rule:nonzero;fill:rgb(9.411765%,56.862745%,67.45098%);fill-opacity:1;"
              d="M 8.328125 6.671875 L 6.449219 6.695312 C 6.460938 6.710938 6.46875 6.726562 6.480469 6.738281 C 6.488281 6.753906 6.5 6.769531 6.507812 6.785156 C 6.515625 6.796875 6.527344 6.8125 6.535156 6.828125 C 6.542969 6.84375 6.550781 6.859375 6.558594 6.875 C 6.566406 6.890625 6.574219 6.90625 6.582031 6.921875 C 6.589844 6.9375 6.597656 6.953125 6.605469 6.96875 C 6.609375 6.980469 6.617188 6.996094 6.625 7.011719 C 6.632812 7.027344 6.636719 7.042969 6.640625 7.058594 L 8.535156 7.023438 C 8.523438 7.007812 8.511719 6.992188 8.5 6.980469 C 8.492188 6.964844 8.480469 6.949219 8.472656 6.9375 C 8.460938 6.921875 8.453125 6.90625 8.445312 6.890625 C 8.433594 6.875 8.425781 6.863281 8.417969 6.847656 C 8.40625 6.832031 8.398438 6.820312 8.390625 6.804688 C 8.382812 6.789062 8.375 6.773438 8.367188 6.757812 C 8.359375 6.746094 8.351562 6.730469 8.34375 6.714844 C 8.339844 6.703125 8.332031 6.6875 8.328125 6.671875 "/>
        <path style=" stroke:none;fill-rule:nonzero;fill:rgb(9.411765%,56.862745%,67.45098%);fill-opacity:1;"
              d="M 5.078125 8.179688 C 4.84375 8.1875 4.601562 8.15625 4.363281 8.097656 C 4.128906 8.039062 3.898438 7.945312 3.6875 7.832031 C 3.480469 7.714844 3.292969 7.578125 3.140625 7.425781 C 2.988281 7.273438 2.871094 7.105469 2.800781 6.929688 C 2.730469 6.757812 2.710938 6.59375 2.738281 6.449219 C 2.765625 6.304688 2.835938 6.171875 2.941406 6.066406 C 3.046875 5.960938 3.1875 5.875 3.359375 5.820312 C 3.527344 5.761719 3.726562 5.730469 3.945312 5.730469 C 4.164062 5.734375 4.386719 5.765625 4.601562 5.824219 C 4.816406 5.882812 5.023438 5.964844 5.214844 6.066406 C 5.40625 6.167969 5.582031 6.292969 5.730469 6.429688 C 5.878906 6.566406 6 6.71875 6.085938 6.882812 C 6.171875 7.046875 6.207031 7.207031 6.203125 7.351562 C 6.195312 7.503906 6.148438 7.640625 6.0625 7.757812 C 5.972656 7.878906 5.84375 7.976562 5.679688 8.050781 C 5.511719 8.125 5.308594 8.167969 5.078125 8.179688 M 3.789062 5.386719 C 3.785156 5.386719 3.78125 5.386719 3.78125 5.386719 C 3.78125 5.386719 3.777344 5.386719 3.773438 5.386719 C 3.773438 5.386719 3.769531 5.386719 3.765625 5.386719 C 3.765625 5.386719 3.761719 5.386719 3.761719 5.386719 C 3.71875 5.386719 3.679688 5.386719 3.636719 5.390625 C 3.597656 5.390625 3.558594 5.390625 3.519531 5.394531 C 3.480469 5.398438 3.441406 5.402344 3.402344 5.40625 C 3.367188 5.414062 3.328125 5.417969 3.292969 5.425781 C 3.082031 5.464844 2.894531 5.527344 2.738281 5.617188 C 2.578125 5.703125 2.445312 5.816406 2.351562 5.945312 C 2.253906 6.078125 2.195312 6.226562 2.175781 6.394531 C 2.15625 6.5625 2.183594 6.746094 2.257812 6.9375 C 2.347656 7.171875 2.5 7.390625 2.699219 7.59375 C 2.898438 7.800781 3.148438 7.984375 3.425781 8.136719 C 3.703125 8.289062 4.007812 8.410156 4.324219 8.492188 C 4.636719 8.570312 4.957031 8.605469 5.269531 8.59375 C 5.554688 8.578125 5.800781 8.523438 6.007812 8.4375 C 6.214844 8.351562 6.378906 8.234375 6.5 8.09375 C 6.617188 7.953125 6.6875 7.789062 6.714844 7.613281 C 6.738281 7.441406 6.714844 7.253906 6.640625 7.058594 C 6.636719 7.042969 6.632812 7.027344 6.625 7.011719 C 6.617188 6.996094 6.613281 6.984375 6.605469 6.96875 C 6.597656 6.953125 6.589844 6.9375 6.582031 6.921875 C 6.574219 6.90625 6.566406 6.890625 6.558594 6.875 C 6.550781 6.859375 6.542969 6.84375 6.535156 6.828125 C 6.527344 6.8125 6.515625 6.800781 6.507812 6.785156 C 6.5 6.769531 6.488281 6.753906 6.480469 6.738281 C 6.46875 6.726562 6.460938 6.710938 6.449219 6.695312 C 6.402344 6.625 6.351562 6.558594 6.296875 6.496094 C 6.238281 6.429688 6.179688 6.367188 6.113281 6.304688 C 6.046875 6.246094 5.980469 6.1875 5.90625 6.132812 C 5.835938 6.078125 5.757812 6.023438 5.679688 5.972656 C 5.648438 5.949219 5.609375 5.925781 5.574219 5.90625 C 5.535156 5.882812 5.5 5.863281 5.460938 5.839844 C 5.421875 5.820312 5.386719 5.800781 5.347656 5.78125 C 5.308594 5.761719 5.269531 5.742188 5.230469 5.726562 C 5.117188 5.671875 5.003906 5.625 4.886719 5.585938 C 4.769531 5.546875 4.648438 5.507812 4.527344 5.480469 C 4.40625 5.453125 4.28125 5.429688 4.160156 5.414062 C 4.035156 5.398438 3.910156 5.386719 3.789062 5.386719 "/>
        <path style=" stroke:none;fill-rule:nonzero;fill:rgb(9.411765%,56.862745%,67.45098%);fill-opacity:1;"
              d="M 10.953125 7.957031 C 10.765625 7.964844 10.566406 7.9375 10.363281 7.882812 C 10.15625 7.828125 9.953125 7.75 9.761719 7.644531 C 9.570312 7.542969 9.386719 7.421875 9.234375 7.28125 C 9.078125 7.148438 8.945312 6.996094 8.851562 6.839844 C 8.757812 6.6875 8.710938 6.539062 8.699219 6.410156 C 8.691406 6.277344 8.71875 6.164062 8.785156 6.066406 C 8.847656 5.96875 8.945312 5.894531 9.070312 5.84375 C 9.195312 5.789062 9.347656 5.761719 9.527344 5.761719 C 9.707031 5.765625 9.894531 5.792969 10.082031 5.847656 C 10.269531 5.898438 10.457031 5.972656 10.632812 6.066406 C 10.8125 6.15625 10.980469 6.269531 11.128906 6.394531 C 11.277344 6.515625 11.410156 6.65625 11.511719 6.800781 C 11.613281 6.949219 11.675781 7.09375 11.703125 7.226562 C 11.726562 7.359375 11.714844 7.480469 11.667969 7.585938 C 11.621094 7.695312 11.535156 7.78125 11.414062 7.847656 C 11.296875 7.910156 11.140625 7.949219 10.953125 7.957031 M 9.324219 5.453125 C 9.320312 5.453125 9.3125 5.453125 9.308594 5.453125 C 9.304688 5.453125 9.296875 5.453125 9.292969 5.453125 C 9.289062 5.453125 9.28125 5.453125 9.277344 5.453125 C 9.273438 5.453125 9.265625 5.453125 9.261719 5.453125 C 9.230469 5.453125 9.195312 5.453125 9.164062 5.457031 C 9.132812 5.457031 9.101562 5.460938 9.070312 5.464844 C 9.039062 5.46875 9.007812 5.472656 8.980469 5.476562 C 8.953125 5.484375 8.921875 5.488281 8.894531 5.496094 C 8.75 5.53125 8.628906 5.582031 8.53125 5.652344 C 8.429688 5.722656 8.351562 5.808594 8.300781 5.910156 C 8.25 6.011719 8.222656 6.128906 8.226562 6.257812 C 8.226562 6.386719 8.261719 6.523438 8.328125 6.671875 C 8.332031 6.6875 8.339844 6.703125 8.347656 6.71875 C 8.351562 6.730469 8.359375 6.746094 8.367188 6.757812 C 8.375 6.773438 8.382812 6.789062 8.390625 6.804688 C 8.398438 6.820312 8.40625 6.832031 8.417969 6.847656 C 8.425781 6.863281 8.433594 6.878906 8.445312 6.890625 C 8.453125 6.90625 8.460938 6.921875 8.472656 6.9375 C 8.484375 6.953125 8.492188 6.964844 8.503906 6.980469 C 8.511719 6.996094 8.523438 7.007812 8.535156 7.023438 C 8.671875 7.210938 8.847656 7.386719 9.050781 7.546875 C 9.253906 7.710938 9.484375 7.855469 9.726562 7.972656 C 9.964844 8.09375 10.21875 8.1875 10.46875 8.246094 C 10.71875 8.308594 10.964844 8.335938 11.195312 8.328125 C 11.441406 8.3125 11.640625 8.261719 11.796875 8.171875 C 11.953125 8.085938 12.0625 7.96875 12.121094 7.824219 C 12.179688 7.6875 12.195312 7.523438 12.15625 7.347656 C 12.117188 7.175781 12.035156 6.988281 11.898438 6.796875 C 11.839844 6.714844 11.777344 6.636719 11.707031 6.5625 C 11.640625 6.484375 11.566406 6.414062 11.484375 6.34375 C 11.40625 6.273438 11.324219 6.207031 11.234375 6.140625 C 11.148438 6.078125 11.058594 6.019531 10.964844 5.960938 C 10.929688 5.941406 10.898438 5.921875 10.863281 5.902344 C 10.828125 5.882812 10.792969 5.863281 10.757812 5.84375 C 10.722656 5.828125 10.6875 5.808594 10.648438 5.792969 C 10.613281 5.773438 10.578125 5.757812 10.542969 5.742188 C 10.441406 5.699219 10.34375 5.65625 10.238281 5.621094 C 10.136719 5.585938 10.035156 5.554688 9.933594 5.53125 C 9.828125 5.507812 9.726562 5.488281 9.625 5.472656 C 9.523438 5.460938 9.421875 5.453125 9.324219 5.453125 "/>
        <path style=" stroke:none;fill-rule:nonzero;fill:rgb(9.411765%,56.862745%,67.45098%);fill-opacity:1;"
              d="M 2.546875 4.1875 C 2.328125 4.179688 2.109375 4.148438 1.898438 4.085938 C 1.683594 4.03125 1.480469 3.949219 1.296875 3.851562 C 1.113281 3.75 0.953125 3.636719 0.824219 3.511719 C 0.695312 3.390625 0.601562 3.257812 0.550781 3.121094 C 0.5 2.988281 0.496094 2.863281 0.53125 2.753906 C 0.566406 2.644531 0.644531 2.550781 0.75 2.476562 C 0.855469 2.398438 0.992188 2.34375 1.15625 2.308594 C 1.320312 2.273438 1.503906 2.261719 1.710938 2.273438 C 1.914062 2.289062 2.117188 2.324219 2.3125 2.378906 C 2.503906 2.4375 2.691406 2.511719 2.859375 2.601562 C 3.03125 2.6875 3.183594 2.792969 3.308594 2.90625 C 3.433594 3.015625 3.535156 3.140625 3.597656 3.269531 C 3.660156 3.398438 3.679688 3.523438 3.664062 3.632812 C 3.644531 3.746094 3.585938 3.84375 3.492188 3.929688 C 3.398438 4.015625 3.269531 4.082031 3.113281 4.128906 C 2.953125 4.171875 2.761719 4.195312 2.546875 4.1875 M 1.589844 2 C 1.324219 1.984375 1.082031 2 0.871094 2.042969 C 0.65625 2.085938 0.476562 2.15625 0.332031 2.253906 C 0.191406 2.351562 0.0859375 2.472656 0.0390625 2.613281 C -0.015625 2.757812 -0.015625 2.921875 0.0507812 3.097656 C 0.117188 3.277344 0.238281 3.453125 0.40625 3.617188 C 0.574219 3.78125 0.789062 3.933594 1.03125 4.0625 C 1.273438 4.195312 1.542969 4.300781 1.824219 4.378906 C 2.105469 4.457031 2.398438 4.5 2.6875 4.507812 C 2.6875 4.507812 2.691406 4.507812 2.691406 4.507812 C 2.695312 4.507812 2.695312 4.507812 2.699219 4.507812 C 2.703125 4.507812 2.703125 4.507812 2.707031 4.507812 C 2.707031 4.507812 2.710938 4.507812 2.710938 4.507812 C 2.753906 4.511719 2.796875 4.511719 2.835938 4.507812 C 2.875 4.507812 2.914062 4.507812 2.953125 4.503906 C 2.992188 4.5 3.027344 4.5 3.066406 4.496094 C 3.101562 4.492188 3.136719 4.484375 3.171875 4.480469 C 3.359375 4.453125 3.523438 4.402344 3.65625 4.335938 C 3.792969 4.273438 3.902344 4.191406 3.984375 4.097656 C 4.0625 4.003906 4.113281 3.898438 4.132812 3.78125 C 4.152344 3.671875 4.140625 3.546875 4.09375 3.421875 C 4.09375 3.410156 4.085938 3.398438 4.082031 3.386719 C 4.078125 3.378906 4.074219 3.367188 4.070312 3.355469 C 4.066406 3.34375 4.0625 3.335938 4.054688 3.324219 C 4.050781 3.3125 4.046875 3.300781 4.039062 3.289062 C 4.03125 3.277344 4.027344 3.265625 4.019531 3.25 C 4.011719 3.238281 4.003906 3.226562 3.996094 3.210938 C 3.988281 3.199219 3.980469 3.1875 3.972656 3.171875 C 3.960938 3.160156 3.953125 3.148438 3.945312 3.132812 C 3.910156 3.082031 3.867188 3.03125 3.824219 2.984375 C 3.78125 2.933594 3.734375 2.886719 3.683594 2.839844 C 3.632812 2.792969 3.578125 2.746094 3.519531 2.703125 C 3.460938 2.65625 3.398438 2.617188 3.335938 2.574219 C 3.304688 2.554688 3.273438 2.535156 3.242188 2.515625 C 3.210938 2.5 3.179688 2.480469 3.148438 2.460938 C 3.113281 2.441406 3.078125 2.425781 3.046875 2.40625 C 3.011719 2.390625 2.976562 2.375 2.941406 2.355469 C 2.839844 2.308594 2.734375 2.265625 2.625 2.226562 C 2.515625 2.1875 2.40625 2.148438 2.292969 2.121094 C 2.179688 2.089844 2.0625 2.0625 1.945312 2.042969 C 1.828125 2.023438 1.707031 2.007812 1.589844 2 "/>
        <path style=" stroke:none;fill-rule:nonzero;fill:rgb(9.411765%,56.862745%,67.45098%);fill-opacity:1;"
              d="M 8.054688 4.363281 C 7.875 4.359375 7.6875 4.328125 7.503906 4.273438 C 7.316406 4.21875 7.132812 4.148438 6.960938 4.058594 C 6.792969 3.96875 6.636719 3.867188 6.503906 3.75 C 6.371094 3.640625 6.265625 3.519531 6.195312 3.394531 C 6.121094 3.269531 6.089844 3.15625 6.09375 3.054688 C 6.097656 2.953125 6.140625 2.867188 6.210938 2.796875 C 6.277344 2.726562 6.378906 2.671875 6.503906 2.640625 C 6.625 2.609375 6.777344 2.59375 6.945312 2.605469 C 7.117188 2.617188 7.289062 2.648438 7.464844 2.699219 C 7.636719 2.75 7.804688 2.820312 7.960938 2.898438 C 8.121094 2.980469 8.269531 3.078125 8.398438 3.179688 C 8.523438 3.285156 8.632812 3.398438 8.714844 3.515625 C 8.792969 3.632812 8.835938 3.75 8.84375 3.851562 C 8.855469 3.953125 8.828125 4.046875 8.773438 4.125 C 8.714844 4.203125 8.625 4.265625 8.503906 4.304688 C 8.382812 4.347656 8.230469 4.367188 8.054688 4.363281 M 6.789062 2.355469 C 6.773438 2.351562 6.761719 2.351562 6.746094 2.351562 C 6.734375 2.351562 6.71875 2.351562 6.707031 2.351562 C 6.691406 2.347656 6.679688 2.347656 6.664062 2.347656 C 6.652344 2.347656 6.640625 2.347656 6.625 2.347656 C 6.59375 2.347656 6.566406 2.347656 6.535156 2.351562 C 6.507812 2.351562 6.476562 2.351562 6.449219 2.355469 C 6.421875 2.359375 6.390625 2.359375 6.367188 2.367188 C 6.335938 2.367188 6.3125 2.375 6.285156 2.378906 C 6.164062 2.402344 6.054688 2.4375 5.96875 2.488281 C 5.875 2.539062 5.804688 2.601562 5.753906 2.671875 C 5.703125 2.746094 5.671875 2.828125 5.664062 2.921875 C 5.652344 3.011719 5.667969 3.113281 5.710938 3.222656 C 5.714844 3.234375 5.71875 3.25 5.726562 3.261719 C 5.730469 3.273438 5.734375 3.285156 5.742188 3.296875 C 5.75 3.3125 5.753906 3.324219 5.761719 3.335938 C 5.769531 3.347656 5.773438 3.359375 5.78125 3.375 C 5.789062 3.382812 5.796875 3.394531 5.800781 3.40625 C 5.808594 3.417969 5.8125 3.429688 5.820312 3.4375 C 5.828125 3.449219 5.835938 3.460938 5.84375 3.46875 C 5.851562 3.480469 5.859375 3.492188 5.863281 3.5 C 5.910156 3.5625 5.960938 3.625 6.019531 3.6875 C 6.078125 3.746094 6.140625 3.804688 6.207031 3.863281 C 6.273438 3.921875 6.347656 3.976562 6.425781 4.03125 C 6.503906 4.085938 6.585938 4.136719 6.667969 4.183594 C 6.703125 4.203125 6.734375 4.222656 6.769531 4.242188 C 6.804688 4.257812 6.839844 4.277344 6.875 4.296875 C 6.910156 4.3125 6.945312 4.328125 6.984375 4.34375 C 7.019531 4.363281 7.054688 4.378906 7.09375 4.394531 C 7.183594 4.429688 7.273438 4.464844 7.367188 4.496094 C 7.457031 4.523438 7.550781 4.550781 7.644531 4.574219 C 7.734375 4.597656 7.828125 4.613281 7.921875 4.628906 C 8.011719 4.640625 8.101562 4.648438 8.191406 4.65625 C 8.195312 4.65625 8.199219 4.65625 8.203125 4.65625 C 8.207031 4.65625 8.210938 4.65625 8.214844 4.65625 C 8.21875 4.65625 8.222656 4.65625 8.226562 4.65625 C 8.230469 4.65625 8.234375 4.65625 8.238281 4.65625 C 8.269531 4.65625 8.296875 4.65625 8.328125 4.65625 C 8.355469 4.65625 8.382812 4.65625 8.414062 4.65625 C 8.441406 4.652344 8.46875 4.648438 8.492188 4.648438 C 8.519531 4.644531 8.546875 4.640625 8.570312 4.640625 C 8.726562 4.617188 8.859375 4.574219 8.964844 4.515625 C 9.070312 4.453125 9.148438 4.378906 9.199219 4.292969 C 9.25 4.203125 9.273438 4.105469 9.265625 4 C 9.257812 3.890625 9.222656 3.773438 9.15625 3.652344 C 9.148438 3.644531 9.144531 3.632812 9.140625 3.625 C 9.132812 3.613281 9.128906 3.605469 9.121094 3.59375 C 9.117188 3.585938 9.109375 3.574219 9.101562 3.5625 C 9.09375 3.554688 9.089844 3.542969 9.082031 3.535156 C 9.074219 3.523438 9.066406 3.507812 9.054688 3.496094 C 9.046875 3.484375 9.039062 3.472656 9.03125 3.460938 C 9.019531 3.449219 9.007812 3.4375 9 3.425781 C 8.992188 3.414062 8.980469 3.402344 8.96875 3.390625 C 8.933594 3.347656 8.894531 3.304688 8.851562 3.261719 C 8.808594 3.222656 8.765625 3.179688 8.71875 3.140625 C 8.671875 3.101562 8.621094 3.0625 8.570312 3.023438 C 8.519531 2.988281 8.46875 2.953125 8.414062 2.914062 C 8.382812 2.898438 8.355469 2.878906 8.324219 2.859375 C 8.296875 2.84375 8.265625 2.824219 8.234375 2.808594 C 8.203125 2.789062 8.171875 2.773438 8.140625 2.757812 C 8.109375 2.742188 8.078125 2.726562 8.046875 2.710938 C 7.945312 2.660156 7.84375 2.617188 7.742188 2.574219 C 7.636719 2.535156 7.53125 2.5 7.425781 2.46875 C 7.320312 2.4375 7.210938 2.414062 7.105469 2.394531 C 7 2.375 6.890625 2.359375 6.789062 2.355469 "/>
        <path style=" stroke:none;fill-rule:nonzero;fill:rgb(9.411765%,56.862745%,67.45098%);fill-opacity:1;"
              d="M 12.621094 4.507812 C 12.472656 4.503906 12.3125 4.476562 12.148438 4.429688 C 11.980469 4.378906 11.8125 4.3125 11.65625 4.230469 C 11.496094 4.148438 11.34375 4.054688 11.210938 3.949219 C 11.078125 3.847656 10.96875 3.734375 10.882812 3.621094 C 10.796875 3.507812 10.746094 3.402344 10.726562 3.304688 C 10.710938 3.214844 10.726562 3.132812 10.769531 3.066406 C 10.8125 3 10.882812 2.949219 10.980469 2.917969 C 11.074219 2.886719 11.195312 2.875 11.339844 2.882812 C 11.484375 2.894531 11.636719 2.921875 11.789062 2.96875 C 11.945312 3.015625 12.101562 3.078125 12.25 3.152344 C 12.398438 3.230469 12.539062 3.316406 12.667969 3.414062 C 12.796875 3.507812 12.910156 3.613281 13 3.722656 C 13.089844 3.832031 13.148438 3.9375 13.179688 4.03125 C 13.207031 4.128906 13.203125 4.214844 13.171875 4.285156 C 13.136719 4.359375 13.074219 4.414062 12.984375 4.453125 C 12.890625 4.492188 12.769531 4.515625 12.621094 4.507812 M 11.15625 2.648438 C 11.148438 2.648438 11.140625 2.648438 11.132812 2.648438 C 11.125 2.648438 11.121094 2.648438 11.113281 2.648438 C 11.105469 2.648438 11.097656 2.648438 11.089844 2.648438 C 11.085938 2.648438 11.078125 2.648438 11.070312 2.648438 C 11.042969 2.644531 11.015625 2.644531 10.992188 2.648438 C 10.96875 2.648438 10.945312 2.648438 10.921875 2.648438 C 10.898438 2.652344 10.875 2.652344 10.851562 2.65625 C 10.828125 2.660156 10.804688 2.664062 10.785156 2.667969 C 10.679688 2.6875 10.59375 2.71875 10.523438 2.765625 C 10.453125 2.8125 10.402344 2.871094 10.371094 2.9375 C 10.339844 3.007812 10.328125 3.085938 10.339844 3.171875 C 10.351562 3.261719 10.386719 3.359375 10.445312 3.464844 C 10.453125 3.476562 10.457031 3.488281 10.464844 3.5 C 10.472656 3.507812 10.480469 3.523438 10.488281 3.53125 C 10.496094 3.546875 10.503906 3.554688 10.511719 3.570312 C 10.519531 3.578125 10.527344 3.59375 10.535156 3.601562 C 10.542969 3.613281 10.550781 3.625 10.558594 3.632812 C 10.566406 3.640625 10.574219 3.652344 10.582031 3.664062 C 10.589844 3.671875 10.597656 3.679688 10.605469 3.691406 C 10.613281 3.703125 10.621094 3.710938 10.632812 3.71875 C 10.679688 3.773438 10.726562 3.828125 10.78125 3.878906 C 10.835938 3.929688 10.898438 3.980469 10.957031 4.027344 C 11.019531 4.078125 11.085938 4.125 11.152344 4.171875 C 11.21875 4.21875 11.289062 4.261719 11.363281 4.304688 C 11.394531 4.324219 11.425781 4.339844 11.457031 4.359375 C 11.488281 4.375 11.523438 4.394531 11.554688 4.410156 C 11.585938 4.425781 11.617188 4.441406 11.652344 4.457031 C 11.683594 4.472656 11.71875 4.488281 11.75 4.503906 C 11.84375 4.546875 11.9375 4.582031 12.027344 4.613281 C 12.121094 4.648438 12.214844 4.675781 12.304688 4.699219 C 12.398438 4.722656 12.488281 4.742188 12.578125 4.753906 C 12.664062 4.765625 12.75 4.773438 12.835938 4.777344 C 13.027344 4.78125 13.1875 4.753906 13.308594 4.703125 C 13.425781 4.648438 13.507812 4.570312 13.546875 4.476562 C 13.585938 4.382812 13.585938 4.265625 13.546875 4.140625 C 13.511719 4.015625 13.429688 3.882812 13.3125 3.738281 C 13.191406 3.59375 13.042969 3.460938 12.878906 3.335938 C 12.710938 3.210938 12.527344 3.097656 12.332031 3 C 12.140625 2.902344 11.941406 2.820312 11.742188 2.761719 C 11.539062 2.703125 11.34375 2.664062 11.15625 2.648438 "/>
        <path style=" stroke:none;fill-rule:nonzero;fill:rgb(9.411765%,56.862745%,67.45098%);fill-opacity:1;"
              d="M 5.710938 1.695312 C 5.542969 1.683594 5.367188 1.648438 5.191406 1.597656 C 5.019531 1.546875 4.851562 1.476562 4.695312 1.398438 C 4.539062 1.316406 4.402344 1.226562 4.285156 1.128906 C 4.171875 1.03125 4.078125 0.929688 4.023438 0.828125 C 3.964844 0.726562 3.945312 0.632812 3.960938 0.550781 C 3.976562 0.46875 4.023438 0.398438 4.09375 0.347656 C 4.167969 0.292969 4.269531 0.253906 4.394531 0.234375 C 4.515625 0.214844 4.664062 0.210938 4.824219 0.226562 C 4.988281 0.242188 5.152344 0.28125 5.3125 0.328125 C 5.476562 0.375 5.632812 0.441406 5.777344 0.515625 C 5.921875 0.585938 6.054688 0.671875 6.167969 0.761719 C 6.28125 0.851562 6.375 0.949219 6.4375 1.046875 C 6.503906 1.148438 6.53125 1.242188 6.53125 1.320312 C 6.527344 1.40625 6.492188 1.480469 6.429688 1.539062 C 6.367188 1.601562 6.269531 1.644531 6.152344 1.671875 C 6.03125 1.699219 5.882812 1.710938 5.710938 1.695312 M 4.695312 0.015625 C 4.484375 -0.0078125 4.296875 -0.00390625 4.132812 0.0234375 C 3.972656 0.046875 3.839844 0.0976562 3.742188 0.164062 C 3.640625 0.234375 3.578125 0.324219 3.554688 0.429688 C 3.535156 0.535156 3.554688 0.65625 3.628906 0.792969 C 3.660156 0.847656 3.695312 0.902344 3.738281 0.953125 C 3.78125 1.007812 3.832031 1.0625 3.890625 1.117188 C 3.945312 1.167969 4.007812 1.21875 4.074219 1.273438 C 4.140625 1.320312 4.210938 1.371094 4.289062 1.417969 C 4.316406 1.4375 4.347656 1.453125 4.375 1.46875 C 4.40625 1.488281 4.4375 1.503906 4.46875 1.523438 C 4.5 1.539062 4.53125 1.554688 4.5625 1.570312 C 4.59375 1.585938 4.625 1.601562 4.660156 1.617188 C 4.753906 1.660156 4.851562 1.699219 4.949219 1.734375 C 5.050781 1.773438 5.148438 1.804688 5.253906 1.832031 C 5.355469 1.859375 5.457031 1.882812 5.558594 1.898438 C 5.660156 1.917969 5.761719 1.929688 5.859375 1.9375 C 5.867188 1.9375 5.871094 1.9375 5.875 1.9375 C 5.882812 1.941406 5.886719 1.941406 5.890625 1.941406 C 5.894531 1.941406 5.898438 1.941406 5.90625 1.941406 C 5.910156 1.941406 5.914062 1.941406 5.921875 1.941406 C 5.953125 1.945312 5.984375 1.945312 6.015625 1.945312 C 6.046875 1.945312 6.078125 1.945312 6.105469 1.945312 C 6.132812 1.945312 6.164062 1.941406 6.191406 1.941406 C 6.21875 1.9375 6.246094 1.9375 6.273438 1.933594 C 6.40625 1.914062 6.523438 1.886719 6.621094 1.84375 C 6.714844 1.796875 6.789062 1.742188 6.839844 1.679688 C 6.890625 1.613281 6.914062 1.539062 6.921875 1.453125 C 6.921875 1.375 6.902344 1.285156 6.855469 1.1875 C 6.851562 1.179688 6.847656 1.171875 6.84375 1.164062 C 6.835938 1.152344 6.832031 1.144531 6.828125 1.132812 C 6.820312 1.125 6.816406 1.117188 6.8125 1.109375 C 6.804688 1.097656 6.800781 1.089844 6.792969 1.078125 C 6.789062 1.070312 6.78125 1.0625 6.773438 1.050781 C 6.765625 1.042969 6.761719 1.03125 6.753906 1.023438 C 6.746094 1.015625 6.738281 1.003906 6.734375 0.996094 C 6.726562 0.984375 6.71875 0.976562 6.710938 0.96875 C 6.613281 0.851562 6.484375 0.738281 6.339844 0.632812 C 6.191406 0.53125 6.027344 0.433594 5.847656 0.347656 C 5.671875 0.265625 5.480469 0.191406 5.285156 0.132812 C 5.09375 0.078125 4.894531 0.0351562 4.695312 0.015625 "/>
        <path style=" stroke:none;fill-rule:nonzero;fill:rgb(9.411765%,56.862745%,67.45098%);fill-opacity:1;"
              d="M 10.125 2.039062 C 9.976562 2.03125 9.824219 2 9.667969 1.953125 C 9.515625 1.90625 9.359375 1.84375 9.214844 1.765625 C 9.070312 1.695312 8.933594 1.609375 8.816406 1.519531 C 8.699219 1.429688 8.601562 1.335938 8.53125 1.238281 C 8.460938 1.140625 8.421875 1.054688 8.417969 0.976562 C 8.410156 0.898438 8.4375 0.835938 8.484375 0.78125 C 8.535156 0.734375 8.609375 0.695312 8.707031 0.675781 C 8.804688 0.652344 8.925781 0.648438 9.066406 0.664062 C 9.203125 0.679688 9.351562 0.710938 9.496094 0.753906 C 9.640625 0.800781 9.785156 0.859375 9.921875 0.925781 C 10.058594 0.996094 10.1875 1.074219 10.304688 1.15625 C 10.414062 1.242188 10.515625 1.332031 10.589844 1.425781 C 10.664062 1.519531 10.710938 1.605469 10.726562 1.683594 C 10.742188 1.761719 10.726562 1.832031 10.6875 1.886719 C 10.644531 1.945312 10.578125 1.988281 10.484375 2.015625 C 10.386719 2.042969 10.265625 2.050781 10.125 2.039062 M 8.914062 0.464844 C 8.742188 0.445312 8.597656 0.449219 8.472656 0.46875 C 8.351562 0.492188 8.25 0.53125 8.179688 0.585938 C 8.109375 0.644531 8.066406 0.71875 8.054688 0.804688 C 8.046875 0.890625 8.070312 0.988281 8.128906 1.101562 C 8.132812 1.109375 8.140625 1.117188 8.144531 1.125 C 8.148438 1.136719 8.15625 1.144531 8.160156 1.152344 C 8.164062 1.164062 8.171875 1.171875 8.179688 1.179688 C 8.183594 1.1875 8.191406 1.199219 8.195312 1.207031 C 8.203125 1.21875 8.210938 1.226562 8.21875 1.234375 C 8.226562 1.242188 8.230469 1.253906 8.238281 1.261719 C 8.246094 1.273438 8.253906 1.28125 8.261719 1.289062 C 8.269531 1.296875 8.277344 1.308594 8.285156 1.316406 C 8.320312 1.359375 8.363281 1.402344 8.410156 1.445312 C 8.453125 1.484375 8.503906 1.527344 8.554688 1.570312 C 8.605469 1.609375 8.660156 1.648438 8.71875 1.6875 C 8.773438 1.726562 8.835938 1.765625 8.894531 1.800781 C 8.921875 1.816406 8.953125 1.832031 8.980469 1.847656 C 9.007812 1.863281 9.039062 1.878906 9.066406 1.894531 C 9.097656 1.910156 9.125 1.925781 9.15625 1.9375 C 9.1875 1.953125 9.21875 1.96875 9.246094 1.980469 C 9.335938 2.019531 9.421875 2.054688 9.511719 2.089844 C 9.601562 2.121094 9.6875 2.148438 9.777344 2.171875 C 9.867188 2.199219 9.953125 2.21875 10.042969 2.234375 C 10.128906 2.25 10.214844 2.261719 10.296875 2.265625 C 10.304688 2.269531 10.3125 2.269531 10.320312 2.269531 C 10.328125 2.269531 10.335938 2.269531 10.339844 2.269531 C 10.347656 2.269531 10.355469 2.273438 10.363281 2.273438 C 10.371094 2.273438 10.378906 2.273438 10.382812 2.273438 C 10.410156 2.273438 10.4375 2.273438 10.460938 2.273438 C 10.488281 2.273438 10.511719 2.273438 10.535156 2.269531 C 10.558594 2.269531 10.582031 2.265625 10.605469 2.265625 C 10.625 2.261719 10.648438 2.257812 10.667969 2.253906 C 10.78125 2.234375 10.875 2.199219 10.941406 2.148438 C 11.007812 2.101562 11.054688 2.042969 11.074219 1.96875 C 11.09375 1.902344 11.085938 1.820312 11.058594 1.734375 C 11.027344 1.648438 10.972656 1.550781 10.894531 1.453125 C 10.792969 1.332031 10.664062 1.214844 10.515625 1.105469 C 10.367188 0.996094 10.203125 0.894531 10.023438 0.804688 C 9.847656 0.71875 9.660156 0.640625 9.472656 0.582031 C 9.285156 0.523438 9.09375 0.484375 8.914062 0.464844 "/>
    </g>
</svg>
